<svg version="1.1" id="Layer_1" xmlns="http://www.w3.org/2000/svg" xmlns:xlink="http://www.w3.org/1999/xlink" x="0px" y="0px"
	 width="100%" viewBox="0 0 500 500" enable-background="new 0 0 500 500" xml:space="preserve">
<path fill="#000000" opacity="1.000000" stroke="none" 
	d="
M290.000000,501.000000 
	C193.333359,501.000000 97.166710,501.000000 1.000051,501.000000 
	C1.000034,334.333405 1.000034,167.666794 1.000017,1.000141 
	C167.666565,1.000094 334.333130,1.000094 500.999756,1.000047 
	C500.999847,167.666519 500.999847,334.333038 500.999939,500.999786 
	C430.833344,501.000000 360.666656,501.000000 290.000000,501.000000 
M296.556915,239.893585 
	C296.846313,239.676407 297.135681,239.459229 297.962402,239.186661 
	C298.294952,239.052597 298.627472,238.918533 299.699463,238.705887 
	C301.896606,237.954254 304.158173,237.350296 306.279755,236.425323 
	C315.272797,232.504440 323.988190,233.413589 332.819916,237.213135 
	C339.188293,239.952927 345.838654,242.034241 352.346069,244.455322 
	C354.794006,245.366074 357.412354,246.067398 359.569855,247.458511 
	C364.121765,250.393524 366.173859,250.055405 369.990479,244.988724 
	C375.745483,245.545639 381.504791,246.061462 387.254425,246.669327 
	C395.436157,247.534348 399.407440,252.685196 400.997223,260.266907 
	C402.354218,266.738647 403.788055,273.194305 405.290955,280.132812 
	C406.149200,278.970001 407.171722,278.065857 407.592285,276.937378 
	C410.537811,269.034088 405.972015,251.994324 398.889526,247.300949 
	C392.150482,242.835175 384.743317,239.360367 377.524017,235.656128 
	C376.511627,235.136658 374.896027,235.792740 373.387451,235.144424 
	C366.383209,233.068405 359.499176,230.264511 352.347137,229.083145 
	C340.979431,227.205429 329.432831,226.410339 317.276093,224.921677 
	C309.836731,221.198196 302.389618,217.490051 294.959686,213.747849 
	C281.697693,207.068207 268.047028,201.477661 252.797012,198.333405 
	C251.863281,198.205734 250.929565,198.078064 249.285995,197.794510 
	C247.856873,197.595490 246.427734,197.396454 244.273651,196.987930 
	C243.522568,196.968201 242.771469,196.948471 241.418533,196.589905 
	C240.271545,196.488647 239.124573,196.387390 237.175232,196.035995 
	C228.477386,196.458405 219.768585,196.729507 211.085754,197.358963 
	C205.716431,197.748215 200.386627,198.682617 194.264465,199.280548 
	C183.660950,202.509796 172.936325,205.393387 162.484344,209.055206 
	C149.207352,213.706726 136.151474,218.989349 122.974518,223.300659 
	C122.564011,222.695999 122.164078,221.575760 121.741348,221.567108 
	C117.863678,221.487610 113.982056,221.600922 109.159706,221.671890 
	C107.412796,224.431259 107.412796,224.431259 101.699989,221.487503 
	C100.788338,224.128067 100.463379,228.423157 98.821793,229.005264 
	C96.591583,229.796127 93.354439,227.747345 90.077003,226.776581 
	C91.048019,229.769638 89.490051,231.066895 86.137924,230.539841 
	C86.581856,231.480469 86.744637,231.934006 86.993950,232.333542 
	C87.788353,233.606567 88.614929,234.859528 89.429085,236.120255 
	C88.043404,236.442352 86.643585,236.714432 85.276093,237.100906 
	C83.958931,237.473145 82.675186,237.963608 81.295601,238.429535 
	C83.402458,240.937042 85.114517,242.974670 87.056969,245.286514 
	C85.075195,245.860260 83.757416,246.241776 82.233200,246.683044 
	C83.250824,247.755905 83.935074,248.477280 84.746483,249.332733 
	C77.890465,251.745911 82.558342,254.487289 83.898651,257.764648 
	C82.953476,258.989441 82.008293,260.214264 81.063110,261.439087 
	C81.362869,261.355865 81.662628,261.272644 81.962379,261.189392 
	C81.543259,264.049683 81.124138,266.909973 80.570915,270.685486 
	C82.878395,270.155426 85.460922,269.562164 88.630707,269.018768 
	C89.088898,269.343018 89.547089,269.667267 89.756897,270.557587 
	C89.503357,271.323151 89.249809,272.088715 88.430489,273.231567 
	C86.639107,274.377563 84.847733,275.523590 82.984604,276.715485 
	C87.348854,281.263947 90.610718,282.207458 94.942474,280.641144 
	C97.127121,279.851196 99.863487,280.731293 102.293159,280.415741 
	C103.569038,280.250000 105.394356,279.390900 105.775642,278.389526 
	C106.381210,276.799133 105.985397,274.827423 106.693474,273.207336 
	C108.256180,275.465149 109.838966,277.709412 111.378258,279.983063 
	C120.131897,292.912720 139.743896,294.656036 150.287048,283.268738 
	C151.318573,282.154602 151.134918,279.915405 151.515320,278.198425 
	C149.798080,278.409058 148.047974,278.485321 146.379120,278.893738 
	C145.671051,279.067017 145.158081,279.967560 144.514832,280.485992 
	C135.530960,287.726410 122.649376,285.742126 116.349571,275.999054 
	C115.464958,274.630981 115.480354,272.680908 115.802086,270.982483 
	C116.524628,270.981384 117.247169,270.980286 118.777084,271.019226 
	C121.332489,271.739838 123.887901,272.460419 126.436188,273.179016 
	C127.682518,266.374176 127.682526,266.374146 134.637756,268.386993 
	C137.805664,269.303802 140.107178,266.818726 139.468292,263.320709 
	C139.135757,261.500061 139.127579,259.622406 138.910736,257.777771 
	C138.722336,256.175018 139.020294,253.824310 138.101028,253.128662 
	C135.410721,251.092819 136.915390,249.567947 138.772491,247.866257 
	C141.696045,249.672318 144.509232,251.709381 147.591980,253.182205 
	C149.027069,253.867813 150.985168,253.458725 152.706192,253.545837 
	C152.336395,251.948624 152.416000,249.991562 151.492249,248.837936 
	C150.080994,247.075516 147.976822,245.867935 146.177521,243.580276 
	C148.150391,240.585388 149.656219,236.989838 154.511124,238.645065 
	C160.424118,240.661041 166.449265,242.349899 172.349396,244.400436 
	C173.780792,244.897919 175.063339,246.113602 176.151733,247.250427 
	C178.805954,250.022720 181.455566,250.706055 184.961182,248.542679 
	C186.621002,247.518387 188.902664,247.132690 190.910889,247.107040 
	C198.835388,247.005814 206.278229,245.377930 213.753098,241.025482 
	C217.862900,242.447906 221.953903,243.740845 225.807617,238.866257 
	C227.087234,236.248169 227.744370,232.219772 229.782501,231.320160 
	C233.462418,229.695862 238.034058,229.225784 242.110504,229.602493 
	C246.436630,230.002289 250.619949,231.947327 255.346344,233.781281 
	C256.006409,235.122513 256.871735,236.403000 257.289856,237.815842 
	C258.825806,243.006027 264.104126,245.497360 269.143585,243.679611 
	C271.799530,242.721603 274.711121,242.336731 277.543579,242.042297 
	C280.337280,241.751877 283.176849,241.902100 286.505554,241.956375 
	C286.670746,241.905594 286.835968,241.854813 287.746307,241.860077 
	C289.336884,241.246521 290.927490,240.632965 292.839233,240.018417 
	C293.053345,240.012207 293.267059,240.018967 294.324554,240.146759 
	C294.883331,240.049652 295.442108,239.952545 296.556915,239.893585 
M164.813049,257.203552 
	C155.843079,263.552856 153.124664,274.100250 158.323395,282.383392 
	C163.932816,291.320923 174.349396,292.990784 184.791641,287.276672 
	C187.060852,288.383270 188.776276,289.219788 190.491669,290.056305 
	C191.205200,288.346405 192.488953,286.651642 192.534729,284.924072 
	C192.746170,276.946167 192.765244,268.954041 192.498276,260.978882 
	C192.430099,258.941833 191.065186,256.948151 190.296051,254.934555 
	C188.637283,255.999985 186.978531,257.065430 185.032303,258.315521 
	C179.262787,254.064987 172.535461,253.451157 164.813049,257.203552 
M274.443634,256.169739 
	C270.590515,264.198700 266.737427,272.227631 262.539124,280.975830 
	C258.561005,272.967834 255.083969,265.616791 251.218704,258.475861 
	C250.417374,256.995453 248.174652,256.295227 246.596237,255.235443 
	C246.378647,257.237305 245.443527,259.513519 246.083572,261.187469 
	C247.731476,265.497406 249.595123,269.880920 252.238556,273.623352 
	C258.808350,282.924530 259.617188,291.914124 252.277618,301.082214 
	C252.176682,301.208282 252.058456,301.393280 252.078323,301.532166 
	C252.323807,303.248779 252.593521,304.961914 252.857010,306.675995 
	C254.490189,305.931854 257.001190,305.624878 257.622711,304.376892 
	C265.014862,289.533600 272.153717,274.563446 279.246613,259.573364 
	C279.717346,258.578430 279.678436,256.334412 279.180420,256.089996 
	C277.989655,255.505600 276.383057,255.768539 274.443634,256.169739 
M340.471619,280.937775 
	C336.406128,274.010956 336.922852,267.753876 341.923218,263.360260 
	C346.832428,259.046753 352.049744,259.518768 358.526093,264.522644 
	C359.541016,265.306824 361.367065,265.041168 362.818024,265.260986 
	C362.783142,263.643555 363.409668,261.264465 362.589081,260.551849 
	C360.153137,258.436432 357.345917,256.379883 354.326233,255.375793 
	C345.870605,252.564224 336.568420,257.258148 333.039246,265.612213 
	C329.565521,273.834991 332.740753,283.877716 340.232574,288.363525 
	C347.769714,292.876495 357.847412,291.441437 362.758514,284.850037 
	C363.640259,283.666565 363.220062,281.513031 363.401001,279.807404 
	C361.856903,280.187561 359.894409,280.093597 358.837738,281.026093 
	C352.741333,286.406097 348.074829,286.626709 340.471619,280.937775 
M385.282471,270.193024 
	C383.810974,269.934265 382.038544,270.098328 380.939545,269.316193 
	C379.352234,268.186523 377.021118,266.154358 377.241516,264.899689 
	C377.553497,263.123779 379.831909,260.488373 381.395355,260.398285 
	C384.285767,260.231720 387.247406,261.740814 390.219452,262.359589 
	C391.620422,262.651276 393.114105,262.497803 394.565735,262.546021 
	C394.214691,260.985779 394.230042,258.307404 393.451355,258.052246 
	C389.338470,256.704468 384.993866,255.080353 380.789642,255.230621 
	C374.832092,255.443573 371.150543,259.748322 371.071259,264.663422 
	C370.988281,269.808075 374.775085,273.862244 380.654572,275.093140 
	C382.911835,275.565674 385.317078,275.938629 387.271637,277.038269 
	C388.595215,277.782898 390.181763,279.879028 389.972137,281.076965 
	C389.700256,282.630493 387.784546,285.033264 386.532715,285.060547 
	C383.085724,285.135590 379.619110,284.142151 376.153778,283.613770 
	C374.484436,283.359192 372.800568,283.200073 371.123230,282.997711 
	C371.791992,284.820435 371.928009,287.316589 373.226227,288.343628 
	C377.688934,291.874146 386.918640,291.788147 391.705963,288.690887 
	C397.957611,284.646240 397.900909,276.622894 391.499420,272.739105 
	C389.824585,271.722992 387.862518,271.180237 385.282471,270.193024 
M300.456604,260.965790 
	C302.287170,260.962067 304.203613,261.293610 305.922485,260.853577 
	C307.429443,260.467804 308.714722,259.216156 310.097931,258.346954 
	C308.690979,257.324249 307.395142,255.696991 305.852325,255.413330 
	C303.204529,254.926559 300.402496,255.278809 297.330078,255.278809 
	C297.330078,252.533508 297.707520,250.445587 297.199463,248.601669 
	C296.851776,247.339813 295.270416,246.417908 294.240570,245.344009 
	C293.252563,246.475113 291.714264,247.474167 291.403717,248.767868 
	C290.921875,250.775391 291.276520,252.983673 291.276520,253.644272 
	C288.223206,255.660721 286.238190,256.971649 284.253174,258.282593 
	C286.270477,259.546021 288.287781,260.809479 291.267914,262.675934 
	C291.267914,266.483887 291.268158,271.609253 291.267853,276.734619 
	C291.267273,286.629669 294.331268,290.067200 304.143768,290.268158 
	C306.101013,290.308258 308.097656,288.427063 310.076111,287.431824 
	C308.253479,286.567474 306.473816,285.087158 304.600006,284.956482 
	C299.374298,284.592041 297.684723,283.338348 297.509094,278.130646 
	C297.352142,273.476288 297.330536,268.807465 297.539154,264.158051 
	C297.587677,263.077087 298.812378,262.048950 300.456604,260.965790 
M222.027206,261.025818 
	C222.967590,259.902222 223.907990,258.778595 224.848373,257.654968 
	C223.625229,256.736847 222.281143,254.913559 221.199966,255.058014 
	C216.632141,255.668304 212.142593,256.864502 207.820450,257.803864 
	C206.817413,256.995758 205.448578,255.892960 204.079742,254.790176 
	C203.219986,256.530670 201.671234,258.250336 201.617966,260.015167 
	C201.367126,268.323944 201.524185,276.645081 201.540909,284.961823 
	C201.545563,287.278656 201.115494,290.124115 204.525055,290.178192 
	C208.201584,290.236542 207.860947,287.234619 207.884537,284.743774 
	C207.919189,281.084656 207.868591,277.424164 207.942047,273.766022 
	C208.124481,264.682678 212.207138,260.773438 222.027206,261.025818 
M238.054398,261.499725 
	C238.052963,254.339554 238.202545,247.173294 237.913300,240.024765 
	C237.860153,238.711136 236.026657,237.469543 235.014954,236.194717 
	C234.017914,237.457184 232.171997,238.707825 232.154236,239.983917 
	C231.961823,253.801559 231.926056,267.625244 232.137955,281.442780 
	C232.221375,286.882843 236.452774,290.669250 241.577240,290.137207 
	C243.009857,289.988434 244.283447,288.308167 245.629990,287.330444 
	C244.599625,286.472687 243.659882,285.043610 242.522110,284.863190 
	C238.955841,284.297577 237.896896,282.333557 237.992844,278.983276 
	C238.150070,273.492584 238.046051,267.994415 238.054398,261.499725 
M321.286072,290.153595 
	C322.164398,288.583405 323.756714,287.033630 323.802216,285.439697 
	C324.049438,276.782410 324.077393,268.108368 323.765320,259.455078 
	C323.707611,257.855072 321.745483,256.323761 320.662323,254.760742 
	C319.588989,256.168121 317.630219,257.548553 317.586426,258.987305 
	C317.307648,268.142883 317.331482,277.314728 317.593384,286.471588 
	C317.629822,287.746826 319.523376,288.968964 321.286072,290.153595 
M318.716309,239.478348 
	C315.670776,241.407867 313.893311,244.222748 316.374359,247.233932 
	C317.693085,248.834412 321.255493,250.152328 322.915710,249.461212 
	C324.548279,248.781601 326.002319,245.326935 325.840698,243.219940 
	C325.582733,239.856583 322.895844,238.311813 318.716309,239.478348 
z"/>
<path fill="#010202" opacity="1.000000" stroke="none" 
	d="
M293.480347,240.038696 
	C293.267059,240.018967 293.053345,240.012207 292.831665,239.536148 
	C292.589050,238.811600 292.353943,238.569305 291.885620,238.188385 
	C291.110443,238.136093 290.568512,238.222443 289.619812,238.303192 
	C284.269135,238.297623 279.325195,238.297623 274.563446,238.297623 
	C271.466339,227.726013 268.613556,226.492752 258.581451,230.756744 
	C257.870026,231.059143 256.944061,230.856750 255.873840,230.630341 
	C245.866913,226.247910 236.067108,223.182968 225.539871,229.308746 
	C221.285873,227.968933 216.778259,226.419968 214.322449,230.567291 
	C211.647141,235.085373 208.980286,235.511017 204.846863,233.281265 
	C203.726517,232.676880 202.295837,232.647812 200.779785,232.208160 
	C199.682205,231.795212 198.812439,231.528809 197.649994,231.150696 
	C196.942444,231.003769 196.527527,230.968536 195.842957,230.685547 
	C181.136337,225.356125 166.856552,223.196960 153.038574,232.390579 
	C152.119232,233.002243 150.551056,232.824341 149.306168,232.729904 
	C142.907318,232.244507 136.515503,231.666275 129.847015,230.894196 
	C129.418320,229.530350 129.263855,228.392776 129.531128,227.170700 
	C136.337646,226.185928 142.722458,225.285660 149.427429,224.365173 
	C150.168808,224.272369 150.590027,224.199768 151.334595,224.166748 
	C152.461212,223.980011 153.264481,223.753693 154.475677,223.442230 
	C157.148514,222.858261 159.521759,222.640762 161.661545,221.816879 
	C182.320007,213.862656 203.188202,206.631622 225.391159,202.775986 
	C226.153000,202.773376 226.588333,202.728714 227.391449,202.779175 
	C228.982651,202.667114 230.206070,202.459900 231.845108,202.289856 
	C235.530289,202.387802 238.799835,202.448593 242.437164,202.666687 
	C243.863022,202.793716 244.921097,202.763428 246.395233,202.797333 
	C265.298798,205.079697 282.200745,212.112244 298.932434,219.787491 
	C305.077515,222.606400 311.544037,224.724548 317.901489,227.139877 
	C317.938995,227.117401 317.913879,227.032532 317.796173,227.371109 
	C318.103760,227.902756 318.529022,228.095825 319.153564,228.481689 
	C319.884064,228.830811 320.415344,228.987137 320.964294,229.456055 
	C321.000092,229.976608 321.018188,230.184555 320.613190,230.360672 
	C313.119781,232.255707 306.049469,234.182571 298.727722,236.121643 
	C298.317596,236.188492 298.158905,236.243103 297.753265,236.280167 
	C297.155548,236.335648 296.903259,236.533981 296.553040,236.854889 
	C296.356659,236.852142 295.991150,236.996048 295.673523,236.966064 
	C294.814331,237.225555 294.272766,237.515030 293.381042,238.098816 
	C293.180695,238.941650 293.330536,239.490173 293.480347,240.038696 
z"/>
<path fill="#161F26" opacity="1.000000" stroke="none" 
	d="
M106.013168,273.017029 
	C105.985397,274.827423 106.381210,276.799133 105.775642,278.389526 
	C105.394356,279.390900 103.569038,280.250000 102.293159,280.415741 
	C99.863487,280.731293 97.127121,279.851196 94.942474,280.641144 
	C90.610718,282.207458 87.348854,281.263947 82.984604,276.715485 
	C84.847733,275.523590 86.639107,274.377563 89.082245,273.144501 
	C92.094849,278.482056 95.992355,277.558441 100.265137,275.552460 
	C99.868233,274.482910 99.221603,273.445648 99.154655,272.372192 
	C99.079742,271.171204 99.530212,269.937500 99.616714,269.462006 
	C96.247589,269.647644 93.126434,269.819580 90.005287,269.991516 
	C89.547089,269.667267 89.088898,269.343018 88.373306,268.651367 
	C89.747597,266.517853 91.379280,264.751678 93.302711,262.965912 
	C94.061157,262.625763 94.527855,262.305237 95.241539,261.955475 
	C95.786377,261.826843 96.084221,261.727448 96.382072,261.628021 
	C96.288689,261.501587 96.120392,261.260223 96.112701,261.265259 
	C95.742889,261.506317 95.386948,261.768677 94.697083,262.020813 
	C93.921883,262.013153 93.479042,262.013397 92.667747,262.014648 
	C90.483994,262.623962 88.668701,263.232300 85.798889,264.194000 
	C87.529228,262.040833 88.495239,260.838745 89.611732,259.449402 
	C87.511238,258.567596 85.749985,257.828217 83.988731,257.088837 
	C82.558342,254.487289 77.890465,251.745911 84.746483,249.332733 
	C83.935074,248.477280 83.250824,247.755905 82.233200,246.683044 
	C83.757416,246.241776 85.075195,245.860260 87.056969,245.286514 
	C85.114517,242.974670 83.402458,240.937042 81.295601,238.429535 
	C82.675186,237.963608 83.958931,237.473145 85.276093,237.100906 
	C86.643585,236.714432 88.043404,236.442352 89.429085,236.120239 
	C88.614929,234.859528 87.788353,233.606567 86.993950,232.333542 
	C86.744637,231.934006 86.581856,231.480469 86.137924,230.539841 
	C89.490051,231.066895 91.048019,229.769638 90.077003,226.776581 
	C93.354439,227.747345 96.591583,229.796127 98.821793,229.005264 
	C100.463379,228.423157 100.788338,224.128067 101.700073,221.487534 
	C107.412796,224.431259 107.412796,224.431259 109.159706,221.671890 
	C113.982056,221.600922 117.863678,221.487610 121.741348,221.567108 
	C122.164078,221.575760 122.564011,222.695999 122.750092,223.899414 
	C119.228172,225.224075 115.930679,225.949982 112.137375,226.785019 
	C108.234871,228.767456 103.691673,231.075363 98.959610,233.479218 
	C102.344162,238.376770 92.464241,242.607285 98.259483,247.927139 
	C96.896721,248.512970 95.770897,248.996948 94.412956,249.580704 
	C96.725883,250.936951 98.759132,252.129196 100.012436,252.864105 
	C100.426033,258.080383 100.805649,262.868164 101.240921,268.357788 
	C103.928223,267.416687 105.288353,266.940369 106.663483,266.944702 
	C106.456711,269.289246 106.234940,271.153137 106.013168,273.017029 
M96.453438,236.485703 
	C96.453438,236.485703 96.538017,236.449112 96.453438,236.485703 
z"/>
<path fill="#EDF1F1" opacity="1.000000" stroke="none" 
	d="
M106.353317,273.112183 
	C106.234940,271.153137 106.456711,269.289246 106.734535,266.671814 
	C106.606834,264.997986 106.423080,264.077698 106.384277,262.723022 
	C106.269478,255.392365 108.860893,249.741943 114.675339,246.096054 
	C118.521576,243.684326 122.894203,242.112061 127.478195,240.172165 
	C129.559998,240.146805 131.317215,240.468857 132.789047,239.962082 
	C133.878174,239.587067 134.595901,238.133316 135.556335,237.384644 
	C136.073074,237.743683 136.512589,237.878220 136.980713,238.408936 
	C138.996628,240.008987 140.983948,241.212845 143.104828,242.666321 
	C144.214554,243.418884 145.190689,243.921844 146.166824,244.424805 
	C147.976822,245.867935 150.080994,247.075516 151.492249,248.837936 
	C152.416000,249.991562 152.336395,251.948624 152.706192,253.545837 
	C150.985168,253.458725 149.027069,253.867813 147.591980,253.182205 
	C144.509232,251.709381 141.696045,249.672318 138.173981,247.573914 
	C135.746094,246.990601 133.916718,246.699646 131.732208,246.294785 
	C129.929672,246.536667 128.482254,246.892456 126.688004,247.278839 
	C122.823853,250.167633 119.306541,253.025818 115.516678,256.059784 
	C114.590210,258.148926 113.352615,260.081757 113.415703,261.971161 
	C113.516716,264.996002 114.480225,267.992035 115.079163,271.000244 
	C115.480354,272.680908 115.464958,274.630981 116.349571,275.999054 
	C122.649376,285.742126 135.530960,287.726410 144.514832,280.485992 
	C145.158081,279.967560 145.671051,279.067017 146.379120,278.893738 
	C148.047974,278.485321 149.798080,278.409058 151.515320,278.198425 
	C151.134918,279.915405 151.318573,282.154602 150.287048,283.268738 
	C139.743896,294.656036 120.131897,292.912720 111.378258,279.983063 
	C109.838966,277.709412 108.256180,275.465149 106.353317,273.112183 
z"/>
<path fill="#EBEDED" opacity="1.000000" stroke="none" 
	d="
M165.131531,257.012482 
	C172.535461,253.451157 179.262787,254.064987 185.032303,258.315521 
	C186.978531,257.065430 188.637283,255.999985 190.296051,254.934555 
	C191.065186,256.948151 192.430099,258.941833 192.498276,260.978882 
	C192.765244,268.954041 192.746170,276.946167 192.534729,284.924072 
	C192.488953,286.651642 191.205200,288.346405 190.491669,290.056305 
	C188.776276,289.219788 187.060852,288.383270 184.791641,287.276672 
	C174.349396,292.990784 163.932816,291.320923 158.323395,282.383392 
	C153.124664,274.100250 155.843079,263.552856 165.131531,257.012482 
M168.087601,262.160706 
	C161.749146,267.247986 160.128693,273.282043 163.536850,279.106506 
	C166.557434,284.268585 173.166489,286.539185 178.631088,284.292236 
	C185.039902,281.657104 188.003799,274.699371 185.492432,268.185425 
	C183.045853,261.839539 176.514343,259.359070 168.087601,262.160706 
z"/>
<path fill="#405378" opacity="1.000000" stroke="none" 
	d="
M106.239319,263.157410 
	C106.423080,264.077698 106.606834,264.997986 106.719536,266.191162 
	C105.288353,266.940369 103.928223,267.416687 101.240921,268.357788 
	C100.805649,262.868164 100.426033,258.080383 100.012436,252.864105 
	C98.759132,252.129196 96.725883,250.936951 94.412956,249.580704 
	C95.770897,248.996948 96.896721,248.512970 98.259483,247.927139 
	C92.464241,242.607285 102.344162,238.376770 98.959610,233.479218 
	C103.691673,231.075363 108.234871,228.767456 112.137375,226.785019 
	C115.930679,225.949982 119.228172,225.224075 122.762962,224.249023 
	C136.151474,218.989349 149.207352,213.706726 162.484344,209.055206 
	C172.936325,205.393387 183.660950,202.509796 194.640289,199.655670 
	C195.018784,200.914810 195.021469,201.798798 194.644241,202.801315 
	C176.321243,207.734482 158.752136,213.601868 141.948212,221.913788 
	C144.313675,221.668106 146.679153,221.422409 149.032532,221.576630 
	C149.049377,222.779480 149.078308,223.582443 149.107254,224.385391 
	C142.722458,225.285660 136.337646,226.185928 129.108185,227.131409 
	C126.380112,227.176620 124.496712,227.176620 122.312675,227.176620 
	C123.453011,229.387497 124.192551,230.821304 124.683304,232.478165 
	C119.064430,235.006393 111.463058,232.463013 108.527641,239.912384 
	C107.647308,239.596451 106.743652,239.272156 105.567207,238.988647 
	C104.867760,239.349243 104.441109,239.669067 104.007050,239.994751 
	C103.999649,240.000610 103.987656,240.015991 103.660545,240.083740 
	C102.231346,242.015213 99.886810,243.646210 102.184448,246.498108 
	C101.833725,248.148560 101.508171,249.452332 101.269089,250.409805 
	C107.152641,254.054642 103.516113,258.761841 102.836395,263.141541 
	C102.671692,263.585602 102.683212,263.895142 102.694748,264.204712 
	C102.791420,263.797913 102.888084,263.391113 103.311607,263.008667 
	C104.505409,263.074524 105.372368,263.115967 106.239319,263.157410 
z"/>
<path fill="#EDF1F1" opacity="1.000000" stroke="none" 
	d="
M274.693970,255.929565 
	C276.383057,255.768539 277.989655,255.505600 279.180420,256.089996 
	C279.678436,256.334412 279.717346,258.578430 279.246613,259.573364 
	C272.153717,274.563446 265.014862,289.533600 257.622711,304.376892 
	C257.001190,305.624878 254.490189,305.931854 252.856995,306.675964 
	C252.593521,304.961914 252.323807,303.248779 252.078323,301.532166 
	C252.058456,301.393280 252.176682,301.208282 252.277618,301.082214 
	C259.617188,291.914124 258.808350,282.924530 252.238556,273.623352 
	C249.595123,269.880920 247.731476,265.497406 246.083572,261.187469 
	C245.443527,259.513519 246.378647,257.237305 246.596222,255.235443 
	C248.174652,256.295227 250.417374,256.995453 251.218704,258.475861 
	C255.083969,265.616791 258.561005,272.967834 262.539124,280.975830 
	C266.737427,272.227631 270.590515,264.198700 274.693970,255.929565 
z"/>
<path fill="#476F7E" opacity="1.000000" stroke="none" 
	d="
M146.172180,244.002533 
	C145.190689,243.921844 144.214554,243.418884 143.087158,242.265228 
	C143.560669,240.014481 144.185425,238.414429 144.810181,236.814392 
	C144.581802,236.347778 144.353424,235.881165 144.125061,235.414551 
	C141.734070,236.280609 139.343079,237.146667 136.952087,238.012726 
	C136.512589,237.878220 136.073074,237.743683 135.232513,237.262878 
	C134.216965,236.257156 133.602478,235.597702 132.934662,234.620651 
	C131.894241,233.515091 130.907135,232.727112 129.964539,231.733063 
	C130.009018,231.526962 130.121231,231.120499 130.121231,231.120483 
	C136.515503,231.666275 142.907318,232.244507 149.306168,232.729904 
	C150.551056,232.824341 152.119232,233.002243 153.038574,232.390579 
	C166.856552,223.196960 181.136337,225.356125 195.486420,230.733246 
	C194.583878,231.400146 193.768204,231.771591 192.543518,232.164398 
	C188.110641,231.231644 184.126221,230.034866 180.054855,229.372940 
	C171.071884,227.912460 162.610413,228.994125 154.726334,235.811188 
	C159.564041,237.637253 163.807297,239.342667 168.124054,240.835526 
	C171.587967,242.033447 174.837982,242.810028 178.432312,240.124725 
	C179.723511,239.160080 183.077927,240.719131 185.394592,241.436722 
	C187.425217,242.065735 189.522156,244.156586 191.241455,243.820374 
	C198.142395,242.470901 204.907928,240.429092 211.877197,238.946136 
	C212.356430,239.844040 212.681992,240.439026 213.007538,241.034012 
	C206.278229,245.377930 198.835388,247.005814 190.910889,247.107040 
	C188.902664,247.132690 186.621002,247.518387 184.961182,248.542679 
	C181.455566,250.706055 178.805954,250.022720 176.151733,247.250427 
	C175.063339,246.113602 173.780792,244.897919 172.349396,244.400436 
	C166.449265,242.349899 160.424118,240.661041 154.511124,238.645065 
	C149.656219,236.989838 148.150391,240.585388 146.172180,244.002533 
z"/>
<path fill="#EBEDED" opacity="1.000000" stroke="none" 
	d="
M340.761200,281.201599 
	C348.074829,286.626709 352.741333,286.406097 358.837738,281.026093 
	C359.894409,280.093597 361.856903,280.187561 363.401001,279.807404 
	C363.220062,281.513031 363.640259,283.666565 362.758514,284.850037 
	C357.847412,291.441437 347.769714,292.876495 340.232574,288.363525 
	C332.740753,283.877716 329.565521,273.834991 333.039246,265.612213 
	C336.568420,257.258148 345.870605,252.564224 354.326233,255.375793 
	C357.345917,256.379883 360.153137,258.436432 362.589081,260.551849 
	C363.409668,261.264465 362.783142,263.643555 362.818054,265.260986 
	C361.367065,265.041168 359.541016,265.306824 358.526093,264.522644 
	C352.049744,259.518768 346.832428,259.046753 341.923218,263.360260 
	C336.922852,267.753876 336.406128,274.010956 340.761200,281.201599 
z"/>
<path fill="#EBEDED" opacity="1.000000" stroke="none" 
	d="
M385.657410,270.306549 
	C387.862518,271.180237 389.824585,271.722992 391.499420,272.739105 
	C397.900909,276.622894 397.957611,284.646240 391.705963,288.690887 
	C386.918640,291.788147 377.688934,291.874146 373.226227,288.343628 
	C371.928009,287.316589 371.791992,284.820435 371.123230,282.997711 
	C372.800568,283.200073 374.484436,283.359192 376.153778,283.613770 
	C379.619110,284.142151 383.085724,285.135590 386.532715,285.060547 
	C387.784546,285.033264 389.700256,282.630493 389.972137,281.076965 
	C390.181763,279.879028 388.595215,277.782898 387.271637,277.038269 
	C385.317078,275.938629 382.911835,275.565674 380.654572,275.093140 
	C374.775085,273.862244 370.988281,269.808075 371.071259,264.663422 
	C371.150543,259.748322 374.832092,255.443573 380.789642,255.230621 
	C384.993866,255.080353 389.338470,256.704468 393.451355,258.052246 
	C394.230042,258.307404 394.214691,260.985779 394.565735,262.546021 
	C393.114105,262.497803 391.620422,262.651276 390.219452,262.359589 
	C387.247406,261.740814 384.285767,260.231720 381.395355,260.398285 
	C379.831909,260.488373 377.553497,263.123779 377.241516,264.899689 
	C377.021118,266.154358 379.352234,268.186523 380.939545,269.316193 
	C382.038544,270.098328 383.810974,269.934265 385.657410,270.306549 
z"/>
<path fill="#EBEDED" opacity="1.000000" stroke="none" 
	d="
M299.976257,260.981140 
	C298.812378,262.048950 297.587677,263.077087 297.539154,264.158051 
	C297.330536,268.807465 297.352142,273.476288 297.509094,278.130646 
	C297.684723,283.338348 299.374298,284.592041 304.600006,284.956482 
	C306.473816,285.087158 308.253479,286.567474 310.076111,287.431824 
	C308.097656,288.427063 306.101013,290.308258 304.143768,290.268158 
	C294.331268,290.067200 291.267273,286.629669 291.267853,276.734619 
	C291.268158,271.609253 291.267914,266.483887 291.267914,262.675934 
	C288.287781,260.809479 286.270477,259.546021 284.253174,258.282593 
	C286.238190,256.971649 288.223206,255.660721 291.276520,253.644272 
	C291.276520,252.983673 290.921875,250.775391 291.403717,248.767868 
	C291.714264,247.474167 293.252563,246.475113 294.240570,245.344009 
	C295.270416,246.417908 296.851776,247.339813 297.199463,248.601669 
	C297.707520,250.445587 297.330078,252.533508 297.330078,255.278809 
	C300.402496,255.278809 303.204529,254.926559 305.852325,255.413330 
	C307.395142,255.696991 308.690979,257.324249 310.097931,258.346954 
	C308.714722,259.216156 307.429443,260.467804 305.922485,260.853577 
	C304.203613,261.293610 302.287170,260.962067 299.976257,260.981140 
z"/>
<path fill="#538F95" opacity="1.000000" stroke="none" 
	d="
M227.023666,202.684036 
	C226.588333,202.728714 226.153000,202.773376 225.375671,202.395401 
	C224.884552,200.448898 224.735458,198.925049 224.588074,197.418823 
	C229.328445,197.017807 233.653015,196.651962 237.977585,196.286133 
	C239.124573,196.387390 240.271545,196.488647 241.889771,197.002869 
	C243.240219,197.343018 244.119415,197.270218 244.998611,197.197418 
	C246.427734,197.396454 247.856873,197.595490 249.889328,198.141327 
	C251.445587,198.588608 252.398499,198.689087 253.351425,198.789566 
	C268.047028,201.477661 281.697693,207.068207 294.959686,213.747849 
	C302.389618,217.490051 309.836731,221.198196 317.617310,225.374298 
	C317.926971,226.272079 317.895477,226.717209 317.863953,227.162354 
	C311.544037,224.724548 305.077515,222.606400 298.932434,219.787491 
	C282.200745,212.112244 265.298798,205.079697 246.168381,202.597565 
	C244.373444,202.392197 243.221420,202.450790 242.069397,202.509369 
	C238.799835,202.448593 235.530289,202.387802 231.459564,202.202942 
	C229.446808,202.280579 228.235245,202.482300 227.023666,202.684036 
z"/>
<path fill="#476F7E" opacity="1.000000" stroke="none" 
	d="
M237.576416,196.161072 
	C233.653015,196.651962 229.328445,197.017807 224.588074,197.418823 
	C224.735458,198.925049 224.884552,200.448898 225.049164,202.353348 
	C203.188202,206.631622 182.320007,213.862656 161.661545,221.816879 
	C159.521759,222.640762 157.148514,222.858261 154.453552,222.986206 
	C153.994034,222.012878 153.964539,221.410461 154.144806,220.518478 
	C172.234863,213.905212 190.115158,207.581512 207.995453,201.257812 
	C207.970291,201.032593 207.945114,200.807388 207.919952,200.582169 
	C203.621353,201.282379 199.322739,201.982590 195.024139,202.682800 
	C195.021469,201.798798 195.018784,200.914810 195.027603,199.701569 
	C200.386627,198.682617 205.716431,197.748215 211.085754,197.358963 
	C219.768585,196.729507 228.477386,196.458405 237.576416,196.161072 
z"/>
<path fill="#EDF1F1" opacity="1.000000" stroke="none" 
	d="
M221.611969,261.013489 
	C212.207138,260.773438 208.124481,264.682678 207.942047,273.766022 
	C207.868591,277.424164 207.919189,281.084656 207.884537,284.743774 
	C207.860947,287.234619 208.201584,290.236542 204.525055,290.178192 
	C201.115494,290.124115 201.545563,287.278656 201.540909,284.961823 
	C201.524185,276.645081 201.367126,268.323944 201.617966,260.015167 
	C201.671234,258.250336 203.219986,256.530670 204.079742,254.790176 
	C205.448578,255.892960 206.817413,256.995758 207.820450,257.803864 
	C212.142593,256.864502 216.632141,255.668304 221.199966,255.058014 
	C222.281143,254.913559 223.625229,256.736847 224.848389,257.654968 
	C223.907990,258.778595 222.967590,259.902222 221.611969,261.013489 
z"/>
<path fill="#EDF1F1" opacity="1.000000" stroke="none" 
	d="
M238.053299,261.999573 
	C238.046051,267.994415 238.150070,273.492584 237.992844,278.983276 
	C237.896896,282.333557 238.955841,284.297577 242.522110,284.863190 
	C243.659882,285.043610 244.599625,286.472687 245.629990,287.330444 
	C244.283447,288.308167 243.009857,289.988434 241.577240,290.137207 
	C236.452774,290.669250 232.221375,286.882843 232.137955,281.442780 
	C231.926056,267.625244 231.961823,253.801559 232.154236,239.983917 
	C232.171997,238.707825 234.017914,237.457184 235.014954,236.194702 
	C236.026657,237.469543 237.860153,238.711136 237.913300,240.024765 
	C238.202545,247.173294 238.052963,254.339554 238.053299,261.999573 
z"/>
<path fill="#405378" opacity="1.000000" stroke="none" 
	d="
M373.559662,235.904694 
	C374.896027,235.792740 376.511627,235.136658 377.524017,235.656128 
	C384.743317,239.360367 392.150482,242.835175 398.889526,247.300949 
	C405.972015,251.994324 410.537811,269.034088 407.592285,276.937378 
	C407.171722,278.065857 406.149200,278.970001 405.290955,280.132812 
	C403.788055,273.194305 402.354218,266.738647 400.997223,260.266907 
	C399.407440,252.685196 395.436157,247.534348 387.254425,246.669327 
	C381.504791,246.061462 375.745483,245.545639 369.515808,244.695679 
	C369.021515,243.611847 369.001923,242.821060 369.346252,241.878662 
	C373.762451,241.727051 377.814697,241.727051 381.866974,241.727051 
	C381.895844,241.468964 381.924744,241.210861 381.953644,240.952774 
	C378.528412,239.372269 375.103149,237.791763 372.146545,236.123627 
	C372.930023,235.992218 373.244843,235.948456 373.559662,235.904694 
z"/>
<path fill="#161F26" opacity="1.000000" stroke="none" 
	d="
M132.087341,246.408676 
	C133.916718,246.699646 135.746094,246.990601 137.809418,247.541931 
	C136.915390,249.567947 135.410721,251.092819 138.101028,253.128662 
	C139.020294,253.824310 138.722336,256.175018 138.910736,257.777771 
	C139.127579,259.622406 139.135757,261.500061 139.468292,263.320709 
	C140.107178,266.818726 137.805664,269.303802 134.637756,268.386993 
	C127.682526,266.374146 127.682518,266.374176 126.436188,273.179016 
	C123.887901,272.460419 121.332489,271.739838 118.339195,270.618042 
	C116.983910,267.460205 116.564079,265.073883 119.677330,263.027588 
	C120.765320,262.312469 120.667099,259.792694 121.459442,258.131378 
	C122.761871,257.766205 123.715431,257.366699 125.053452,256.806274 
	C127.318695,256.232941 129.199493,255.820557 131.389755,255.340302 
	C131.616776,252.433670 131.852066,249.421173 132.087341,246.408676 
z"/>
<path fill="#538F95" opacity="1.000000" stroke="none" 
	d="
M292.118835,238.327026 
	C292.353943,238.569305 292.589050,238.811600 292.671082,239.536652 
	C290.927490,240.632965 289.336884,241.246521 287.268768,241.703491 
	C286.442719,241.395706 286.177734,241.499725 285.996277,241.858978 
	C283.176849,241.902100 280.337280,241.751877 277.543579,242.042297 
	C274.711121,242.336731 271.799530,242.721603 269.143585,243.679611 
	C264.104126,245.497360 258.825806,243.006027 257.289856,237.815842 
	C256.871735,236.403000 256.006409,235.122513 255.167755,233.160034 
	C255.365402,231.988876 255.741623,231.438965 256.117828,230.889069 
	C256.944061,230.856750 257.870026,231.059143 258.581451,230.756744 
	C268.613556,226.492752 271.466339,227.726013 274.563446,238.297623 
	C279.325195,238.297623 284.269135,238.297623 289.856628,238.486084 
	C291.039703,238.558701 291.579285,238.442871 292.118835,238.327026 
z"/>
<path fill="#476F7E" opacity="1.000000" stroke="none" 
	d="
M368.982330,242.030273 
	C369.001923,242.821060 369.021515,243.611847 369.068695,244.798218 
	C366.173859,250.055405 364.121765,250.393524 359.569855,247.458511 
	C357.412354,246.067398 354.794006,245.366074 352.346069,244.455322 
	C345.838654,242.034241 339.188293,239.952927 332.819916,237.213135 
	C323.988190,233.413589 315.272797,232.504440 306.279755,236.425323 
	C304.158173,237.350296 301.896606,237.954254 299.339905,238.410873 
	C298.979950,237.447052 298.979553,236.778229 298.979126,236.109421 
	C306.049469,234.182571 313.119781,232.255707 320.895935,230.535614 
	C323.415161,231.125107 325.228607,231.507828 327.397369,231.989044 
	C329.737823,232.888168 331.698761,233.756332 333.712402,234.477356 
	C341.091644,237.119690 348.474213,239.754761 355.895599,242.274704 
	C356.875488,242.607452 358.557098,242.719406 359.113617,242.150681 
	C362.462616,238.728439 365.682251,240.285385 368.982330,242.030273 
z"/>
<path fill="#EBEDED" opacity="1.000000" stroke="none" 
	d="
M320.921661,290.184631 
	C319.523376,288.968964 317.629822,287.746826 317.593384,286.471588 
	C317.331482,277.314728 317.307648,268.142883 317.586426,258.987305 
	C317.630219,257.548553 319.588989,256.168121 320.662323,254.760742 
	C321.745483,256.323761 323.707611,257.855072 323.765320,259.455078 
	C324.077393,268.108368 324.049438,276.782410 323.802216,285.439697 
	C323.756714,287.033630 322.164398,288.583405 320.921661,290.184631 
z"/>
<path fill="#538F95" opacity="1.000000" stroke="none" 
	d="
M213.380310,241.029755 
	C212.681992,240.439026 212.356430,239.844040 211.798141,238.624023 
	C208.060516,236.897598 204.555634,235.796188 201.048584,234.305359 
	C201.033463,233.395523 201.020523,232.875107 201.007568,232.354706 
	C202.295837,232.647812 203.726517,232.676880 204.846863,233.281265 
	C208.980286,235.511017 211.647141,235.085373 214.322449,230.567291 
	C216.778259,226.419968 221.285873,227.968933 225.534058,229.700348 
	C225.696899,233.201370 225.458969,236.280792 225.221039,239.360214 
	C221.953903,243.740845 217.862900,242.447906 213.380310,241.029755 
z"/>
<path fill="#476F7E" opacity="1.000000" stroke="none" 
	d="
M373.473572,235.524567 
	C373.244843,235.948456 372.930023,235.992218 371.763733,236.100571 
	C356.623779,231.798126 341.870850,230.863449 326.693237,230.143066 
	C324.522125,229.749008 322.734375,229.446243 320.946594,229.143463 
	C320.415344,228.987137 319.884064,228.830811 319.062805,228.210388 
	C318.486481,227.508377 318.200195,227.270447 317.913879,227.032532 
	C317.913879,227.032532 317.938995,227.117401 317.901489,227.139877 
	C317.895477,226.717209 317.926971,226.272079 317.960205,225.492126 
	C329.432831,226.410339 340.979431,227.205429 352.347137,229.083145 
	C359.499176,230.264511 366.383209,233.068405 373.473572,235.524567 
z"/>
<path fill="#476F7E" opacity="1.000000" stroke="none" 
	d="
M225.514328,239.113235 
	C225.458969,236.280792 225.696899,233.201370 225.940643,229.730347 
	C236.067108,223.182968 245.866913,226.247910 255.873840,230.630341 
	C255.741623,231.438965 255.365402,231.988876 254.927399,232.878143 
	C250.619949,231.947327 246.436630,230.002289 242.110504,229.602493 
	C238.034058,229.225784 233.462418,229.695862 229.782501,231.320160 
	C227.744370,232.219772 227.087234,236.248169 225.514328,239.113235 
z"/>
<path fill="#538F95" opacity="1.000000" stroke="none" 
	d="
M319.024841,239.323730 
	C322.895844,238.311813 325.582733,239.856583 325.840698,243.219940 
	C326.002319,245.326935 324.548279,248.781601 322.915710,249.461212 
	C321.255493,250.152328 317.693085,248.834412 316.374359,247.233932 
	C313.893311,244.222748 315.670776,241.407867 319.024841,239.323730 
z"/>
<path fill="#010202" opacity="1.000000" stroke="none" 
	d="
M93.010956,262.985504 
	C91.379280,264.751678 89.747597,266.517853 88.079681,268.626465 
	C85.460922,269.562164 82.878395,270.155426 80.570915,270.685486 
	C81.124138,266.909973 81.543259,264.049683 81.962379,261.189392 
	C81.662628,261.272644 81.362869,261.355865 81.063110,261.439087 
	C82.008293,260.214264 82.953476,258.989441 83.943695,257.426758 
	C85.749985,257.828217 87.511238,258.567596 89.611732,259.449402 
	C88.495239,260.838745 87.529228,262.040833 85.798889,264.194000 
	C88.668701,263.232300 90.483994,262.623962 92.636154,262.256897 
	C92.973022,262.498138 93.010956,262.985504 93.010956,262.985504 
M84.583305,264.516388 
	C84.583305,264.516388 84.484909,264.571991 84.583305,264.516388 
z"/>
<path fill="#405378" opacity="1.000000" stroke="none" 
	d="
M121.110588,258.097046 
	C120.667099,259.792694 120.765320,262.312469 119.677330,263.027588 
	C116.564079,265.073883 116.983910,267.460205 117.935509,270.598022 
	C117.247169,270.980286 116.524628,270.981384 115.440628,270.991364 
	C114.480225,267.992035 113.516716,264.996002 113.415703,261.971161 
	C113.352615,260.081757 114.590210,258.148926 115.841187,256.230774 
	C117.995689,256.849701 119.553139,257.473389 121.110588,258.097046 
z"/>
<path fill="#010202" opacity="1.000000" stroke="none" 
	d="
M89.881088,270.274536 
	C93.126434,269.819580 96.247589,269.647644 99.616714,269.462006 
	C99.530212,269.937500 99.079742,271.171204 99.154655,272.372192 
	C99.221603,273.445648 99.868233,274.482910 100.265137,275.552460 
	C95.992355,277.558441 92.094849,278.482056 89.365128,272.955872 
	C89.249809,272.088715 89.503357,271.323151 89.881088,270.274536 
z"/>
<path fill="#538F95" opacity="1.000000" stroke="none" 
	d="
M298.727722,236.121643 
	C298.979553,236.778229 298.979950,237.447052 298.970154,238.450165 
	C298.627472,238.918533 298.294952,239.052597 297.417603,239.207062 
	C296.582153,239.436783 296.291534,239.646118 296.000885,239.855453 
	C295.442108,239.952545 294.883331,240.049652 293.902466,240.092728 
	C293.330536,239.490173 293.180695,238.941650 293.705505,238.150116 
	C294.917175,237.603409 295.454163,237.299744 295.991150,236.996063 
	C295.991150,236.996048 296.356659,236.852142 296.797302,236.858292 
	C297.571472,236.782318 297.825562,236.593399 298.000214,236.297699 
	C298.158905,236.243103 298.317596,236.188492 298.727722,236.121643 
z"/>
<path fill="#476F7E" opacity="1.000000" stroke="none" 
	d="
M253.074219,198.561493 
	C252.398499,198.689087 251.445587,198.588608 250.244247,198.219269 
	C250.929565,198.078064 251.863281,198.205734 253.074219,198.561493 
z"/>
<path fill="#476F7E" opacity="1.000000" stroke="none" 
	d="
M244.636139,197.092682 
	C244.119415,197.270218 243.240219,197.343018 242.190704,197.172287 
	C242.771469,196.948471 243.522568,196.968201 244.636139,197.092682 
z"/>
<path fill="#476F7E" opacity="1.000000" stroke="none" 
	d="
M286.250916,241.907684 
	C286.177734,241.499725 286.442719,241.395706 286.896210,241.675461 
	C286.835968,241.854813 286.670746,241.905594 286.250916,241.907684 
z"/>
<path fill="#476F7E" opacity="1.000000" stroke="none" 
	d="
M296.278900,239.874512 
	C296.291534,239.646118 296.582153,239.436783 297.148926,239.234741 
	C297.135681,239.459229 296.846313,239.676407 296.278900,239.874512 
z"/>
<path fill="#161F26" opacity="1.000000" stroke="none" 
	d="
M129.847015,230.894211 
	C130.121231,231.120499 130.009018,231.526962 129.550110,231.731049 
	C127.704826,232.041809 126.318459,232.148453 124.932083,232.255112 
	C124.192551,230.821304 123.453011,229.387497 122.312675,227.176620 
	C124.496712,227.176620 126.380112,227.176620 128.686447,227.215912 
	C129.263855,228.392776 129.418320,229.530350 129.847015,230.894211 
z"/>
<path fill="#476F7E" opacity="1.000000" stroke="none" 
	d="
M200.779785,232.208160 
	C201.020523,232.875107 201.033463,233.395523 200.695862,234.307709 
	C198.803970,234.193863 197.262619,233.688248 196.036301,233.102219 
	C196.881775,232.435333 197.412216,231.848862 197.942657,231.262390 
	C198.812439,231.528809 199.682205,231.795212 200.779785,232.208160 
z"/>
<path fill="#161F26" opacity="1.000000" stroke="none" 
	d="
M320.964294,229.456055 
	C322.734375,229.446243 324.522125,229.749008 326.670685,230.418488 
	C327.035004,231.153641 327.038544,231.522095 327.042053,231.890549 
	C325.228607,231.507828 323.415161,231.125107 321.318970,230.567444 
	C321.018188,230.184555 321.000092,229.976608 320.964294,229.456055 
z"/>
<path fill="#405378" opacity="1.000000" stroke="none" 
	d="
M153.935043,220.808044 
	C153.964539,221.410461 153.994034,222.012878 154.045624,223.071320 
	C153.264481,223.753693 152.461212,223.980011 151.335358,223.777924 
	C151.000366,222.574585 150.987961,221.799683 151.342529,220.960983 
	C152.451355,220.867477 153.193192,220.837753 153.935043,220.808044 
z"/>
<path fill="#538F95" opacity="1.000000" stroke="none" 
	d="
M197.649994,231.150696 
	C197.412216,231.848862 196.881775,232.435333 195.749664,233.031860 
	C194.416168,232.742310 193.684341,232.442657 192.952515,232.143036 
	C193.768204,231.771591 194.583878,231.400146 195.756088,230.981018 
	C196.527527,230.968536 196.942444,231.003769 197.649994,231.150696 
z"/>
<path fill="#476F7E" opacity="1.000000" stroke="none" 
	d="
M150.975555,221.024765 
	C150.987961,221.799683 151.000366,222.574585 151.012009,223.738342 
	C150.590027,224.199768 150.168808,224.272369 149.427429,224.365173 
	C149.078308,223.582443 149.049377,222.779480 149.350525,221.513138 
	C150.112259,221.041412 150.543915,221.033081 150.975555,221.024765 
z"/>
<path fill="#476F7E" opacity="1.000000" stroke="none" 
	d="
M242.437164,202.666687 
	C243.221420,202.450790 244.373444,202.392197 245.752319,202.533371 
	C244.921097,202.763428 243.863022,202.793716 242.437164,202.666687 
z"/>
<path fill="#476F7E" opacity="1.000000" stroke="none" 
	d="
M227.391449,202.779175 
	C228.235245,202.482300 229.446808,202.280579 231.043945,202.165771 
	C230.206070,202.459900 228.982651,202.667114 227.391449,202.779175 
z"/>
<path fill="#476F7E" opacity="1.000000" stroke="none" 
	d="
M291.885620,238.188385 
	C291.579285,238.442871 291.039703,238.558701 290.263367,238.491653 
	C290.568512,238.222443 291.110443,238.136093 291.885620,238.188385 
z"/>
<path fill="#476F7E" opacity="1.000000" stroke="none" 
	d="
M295.673523,236.966064 
	C295.454163,237.299744 294.917175,237.603409 294.055664,237.855804 
	C294.272766,237.515030 294.814331,237.225555 295.673523,236.966064 
z"/>
<path fill="#538F95" opacity="1.000000" stroke="none" 
	d="
M317.796173,227.371109 
	C318.200195,227.270447 318.486481,227.508377 318.863556,228.017609 
	C318.529022,228.095825 318.103760,227.902756 317.796173,227.371109 
z"/>
<path fill="#476F7E" opacity="1.000000" stroke="none" 
	d="
M297.753265,236.280167 
	C297.825562,236.593399 297.571472,236.782318 296.993713,236.861023 
	C296.903259,236.533981 297.155548,236.335648 297.753265,236.280167 
z"/>
<path fill="#405378" opacity="1.000000" stroke="none" 
	d="
M95.029449,262.028687 
	C95.386948,261.768677 95.742889,261.506317 96.112701,261.265259 
	C96.120392,261.260223 96.288689,261.501587 96.382072,261.628021 
	C96.084221,261.727448 95.786377,261.826843 95.248421,261.967133 
	C95.008316,262.007996 95.029457,262.028687 95.029449,262.028687 
z"/>
<path fill="#405378" opacity="1.000000" stroke="none" 
	d="
M93.302704,262.965912 
	C93.010956,262.985504 92.973022,262.498138 93.004616,262.255890 
	C93.479042,262.013397 93.921883,262.013153 94.697083,262.020813 
	C95.029457,262.028687 95.008316,262.007996 95.001434,261.996338 
	C94.527855,262.305237 94.061157,262.625763 93.302704,262.965912 
z"/>
<path fill="#405378" opacity="1.000000" stroke="none" 
	d="
M96.495728,236.467407 
	C96.538017,236.449112 96.453438,236.485703 96.495728,236.467407 
z"/>
<path fill="#538F95" opacity="1.000000" stroke="none" 
	d="
M124.683304,232.478165 
	C126.318459,232.148453 127.704826,232.041809 129.505615,231.937149 
	C130.907135,232.727112 131.894241,233.515091 132.550064,234.672455 
	C129.795319,236.046082 126.050682,235.712219 127.031166,240.163956 
	C122.894203,242.112061 118.521576,243.684326 114.675339,246.096054 
	C108.860893,249.741943 106.269478,255.392365 106.384277,262.723022 
	C105.372368,263.115967 104.505409,263.074524 103.318222,263.015503 
	C102.997978,262.997986 103.012619,263.007080 103.012619,263.007080 
	C103.516113,258.761841 107.152641,254.054642 101.269089,250.409805 
	C101.508171,249.452332 101.833725,248.148560 102.474472,246.460083 
	C105.664658,244.494766 108.158867,242.751221 105.840004,238.947845 
	C106.743652,239.272156 107.647308,239.596451 108.527641,239.912384 
	C111.463058,232.463013 119.064430,235.006393 124.683304,232.478165 
z"/>
<path fill="#476F7E" opacity="1.000000" stroke="none" 
	d="
M121.459442,258.131378 
	C119.553139,257.473389 117.995689,256.849701 116.113731,256.054993 
	C119.306541,253.025818 122.823853,250.167633 126.681381,247.638672 
	C125.674332,250.620071 124.327065,253.272247 122.853966,256.172119 
	C123.296173,256.365845 123.982582,256.666504 124.668991,256.967224 
	C123.715431,257.366699 122.761871,257.766205 121.459442,258.131378 
z"/>
<path fill="#405378" opacity="1.000000" stroke="none" 
	d="
M125.053444,256.806274 
	C123.982582,256.666504 123.296173,256.365845 122.853966,256.172119 
	C124.327065,253.272247 125.674332,250.620071 127.028214,247.608078 
	C128.482254,246.892456 129.929672,246.536667 131.732208,246.294785 
	C131.852066,249.421173 131.616776,252.433670 131.389755,255.340302 
	C129.199493,255.820557 127.318695,256.232941 125.053444,256.806274 
z"/>
<path fill="#161F26" opacity="1.000000" stroke="none" 
	d="
M136.980713,238.408920 
	C139.343079,237.146667 141.734070,236.280609 144.125061,235.414551 
	C144.353424,235.881165 144.581802,236.347778 144.810181,236.814392 
	C144.185425,238.414429 143.560669,240.014481 142.953583,242.015625 
	C140.983948,241.212845 138.996628,240.008987 136.980713,238.408920 
z"/>
<path fill="#405378" opacity="1.000000" stroke="none" 
	d="
M127.478195,240.172165 
	C126.050682,235.712219 129.795319,236.046082 132.603394,234.990051 
	C133.602478,235.597702 134.216965,236.257156 135.155273,237.038376 
	C134.595901,238.133316 133.878174,239.587067 132.789047,239.962082 
	C131.317215,240.468857 129.559998,240.146805 127.478195,240.172165 
z"/>
<path fill="#010202" opacity="1.000000" stroke="none" 
	d="
M168.461365,262.010101 
	C176.514343,259.359070 183.045853,261.839539 185.492432,268.185425 
	C188.003799,274.699371 185.039902,281.657104 178.631088,284.292236 
	C173.166489,286.539185 166.557434,284.268585 163.536850,279.106506 
	C160.128693,273.282043 161.749146,267.247986 168.461365,262.010101 
z"/>
<path fill="#010202" opacity="1.000000" stroke="none" 
	d="
M151.342529,220.960983 
	C150.543915,221.033081 150.112259,221.041412 149.362625,221.113235 
	C146.679153,221.422409 144.313675,221.668106 141.948212,221.913788 
	C158.752136,213.601868 176.321243,207.734482 194.644241,202.801315 
	C199.322739,201.982590 203.621353,201.282379 207.919952,200.582169 
	C207.945114,200.807388 207.970291,201.032593 207.995453,201.257812 
	C190.115158,207.581512 172.234863,213.905212 154.144806,220.518478 
	C153.193192,220.837753 152.451355,220.867477 151.342529,220.960983 
z"/>
<path fill="#476F7E" opacity="1.000000" stroke="none" 
	d="
M105.567207,238.988647 
	C108.158867,242.751221 105.664658,244.494766 102.499641,246.113403 
	C99.886810,243.646210 102.231346,242.015213 103.714737,240.212006 
	C104.177559,240.317947 104.259071,240.363373 104.340576,240.408813 
	C104.231865,240.268845 104.123161,240.128876 104.014458,239.988892 
	C104.441109,239.669067 104.867760,239.349243 105.567207,238.988647 
z"/>
<path fill="#538F95" opacity="1.000000" stroke="none" 
	d="
M102.991364,262.991150 
	C102.888084,263.391113 102.791420,263.797913 102.694748,264.204712 
	C102.683212,263.895142 102.671692,263.585602 102.836395,263.141541 
	C103.012619,263.007080 102.997978,262.997986 102.991364,262.991150 
z"/>
<path fill="#010202" opacity="1.000000" stroke="none" 
	d="
M192.543518,232.164398 
	C193.684341,232.442657 194.416168,232.742310 195.434631,233.112305 
	C197.262619,233.688248 198.803970,234.193863 200.698029,234.697144 
	C204.555634,235.796188 208.060516,236.897598 211.644470,238.321121 
	C204.907928,240.429092 198.142395,242.470901 191.241455,243.820374 
	C189.522156,244.156586 187.425217,242.065735 185.394592,241.436722 
	C183.077927,240.719131 179.723511,239.160080 178.432312,240.124725 
	C174.837982,242.810028 171.587967,242.033447 168.124054,240.835526 
	C163.807297,239.342667 159.564041,237.637253 154.726334,235.811188 
	C162.610413,228.994125 171.071884,227.912460 180.054855,229.372940 
	C184.126221,230.034866 188.110641,231.231644 192.543518,232.164398 
z"/>
<path fill="#010202" opacity="1.000000" stroke="none" 
	d="
M327.397369,231.989044 
	C327.038544,231.522095 327.035004,231.153641 327.054016,230.509766 
	C341.870850,230.863449 356.623779,231.798126 371.295105,236.188202 
	C375.103149,237.791763 378.528412,239.372269 381.953644,240.952774 
	C381.924744,241.210861 381.895844,241.468964 381.866974,241.727051 
	C377.814697,241.727051 373.762451,241.727051 369.346252,241.878662 
	C365.682251,240.285385 362.462616,238.728439 359.113617,242.150681 
	C358.557098,242.719406 356.875488,242.607452 355.895599,242.274704 
	C348.474213,239.754761 341.091644,237.119690 333.712402,234.477356 
	C331.698761,233.756332 329.737823,232.888168 327.397369,231.989044 
z"/>
<path fill="#161F26" opacity="1.000000" stroke="none" 
	d="
M84.534103,264.544189 
	C84.484909,264.571991 84.583305,264.516388 84.534103,264.544189 
z"/>
<path fill="#405378" opacity="1.000000" stroke="none" 
	d="
M104.007050,239.994751 
	C104.123161,240.128876 104.231865,240.268845 104.340576,240.408813 
	C104.259071,240.363373 104.177559,240.317947 104.041855,240.144257 
	C103.987656,240.015991 103.999649,240.000610 104.007050,239.994751 
z"/>
</svg>